<?xml version="1.0" encoding="utf-8"?>
<!-- Generator: Adobe Illustrator 26.3.1, SVG Export Plug-In . SVG Version: 6.00 Build 0)  -->
<svg version="1.1" id="Layer_2" xmlns="http://www.w3.org/2000/svg" xmlns:xlink="http://www.w3.org/1999/xlink" x="0px" y="0px"
	 viewBox="0 0 1000 1000" style="enable-background:new 0 0 1000 1000;" xml:space="preserve">
<style type="text/css">
	.st0{fill:#454644;stroke:#F3D413;stroke-miterlimit:10;}
	.st1{fill:#454644;stroke:#FFFFFF;stroke-width:3;stroke-linecap:round;}
	.st2{fill:#FFFFFF;}
	.st3{fill:none;stroke:#F3D413;stroke-miterlimit:10;}
</style>
<path id="rect2383_00000152964929336200501130000007149946221026606253_" class="st0" d="M304.5,17.1l2.4,180.5
	c-0.1,13.9,1.3,64.2,39.1,108c51,59.1,125.4,56.5,134.8,56c-153,0-306,0-459,0V17.1H304.5L304.5,17.1z"/>
<path id="rect2383" class="st1" d="M18.8,356.8h969.7v282.8H18.8L18.8,356.8L18.8,356.8z"/>
<rect id="rect3165" x="29.1" y="364.7" class="st2" width="175" height="16.2"/>
<rect id="rect3167" x="29.1" y="392.6" class="st2" width="175" height="16.2"/>
<rect id="rect3169" x="29.1" y="420.4" class="st2" width="175" height="16.2"/>
<rect id="rect3173" x="29.1" y="448.3" class="st2" width="175" height="16.2"/>
<rect id="rect3175" x="29.1" y="476.2" class="st2" width="175" height="16.2"/>
<rect id="rect3179" x="29.1" y="504" class="st2" width="175" height="16.2"/>
<rect id="rect3181" x="29.1" y="531.9" class="st2" width="175" height="16.2"/>
<rect id="rect3185" x="29.1" y="559.8" class="st2" width="175" height="16.2"/>
<rect id="rect3187" x="29.1" y="587.6" class="st2" width="175" height="16.2"/>
<rect id="rect3189" x="29.1" y="615.5" class="st2" width="175" height="16.2"/>
<path id="rect3333" class="st2" d="M755.9,552.7h150v50.4h-150V552.7z"/>
<path id="rect3275_00000069373947911504530930000004680579303626084760_" class="st2" d="M487.6,419.7h150v8.9h-150V419.7z"/>
<path id="rect3277_00000026852905250678148070000001486169859142153873_" class="st2" d="M487.6,434.1h150v8.9h-150V434.1z"/>
<path id="rect3279_00000042729951789562190320000001347619621802515102_" class="st2" d="M487.6,557.4h150v8.9h-150V557.4z"/>
<path id="rect3281_00000049186468687283678560000017791009924902166657_" class="st2" d="M487.6,569.7h150v8.9h-150V569.7z"/>
<path id="rect3333_00000121997180016110597730000000543831312171583414_" class="st2" d="M755.9,392.6h150V443h-150V392.6z"/>
<path id="rect3275_00000054251961311954892430000011503608082441036476_" class="st2" d="M487.6,404.3h150v8.9h-150V404.3z"/>
<path id="rect3275_00000039840692248350127320000005139279582499358109_" class="st2" d="M487.6,583.2h150v8.9h-150V583.2z"/>
<path id="rect3265_00000018196747907784579340000012853648556001786762_" class="st2" d="M481.7,494.2h120.7v5.9H481.7V494.2z"/>
<path id="rect3265_00000053544768299225509840000000674579884242394297_" class="st2" d="M659.6,494.2h120.7v5.9H659.6V494.2z"/>
<path id="rect3265_00000178181085801797505380000006676258884833771392_" class="st2" d="M838.6,494.1h120.7v5.9H838.6V494.1z"/>
<path class="st3" d="M352.5,498.2l-45.2,0c-8.8,0.1-70,0-113.2-49.9c-35-40.5-35.3-87.2-35-98.7c0-24.2,0-48.5,0-72.7
	c0-86.6,0-173.2,0-259.8"/>
</svg>
