<svg xmlns="http://www.w3.org/2000/svg" viewBox="0 0 231.79 305.72"><defs><style>.cls-1,.cls-2{fill-rule:evenodd;}.cls-2{fill:#505050;}</style></defs><g id="Layer_2" data-name="Layer 2"><g id="Layer_1-2" data-name="Layer 1"><polyline class="cls-1" points="231.79 2.77 0 2.77 0 303.31 0.36 304.39 0.6 304.76 0.96 305 1.2 305.24 1.56 305.48 1.93 305.6 2.17 305.72 229.5 305.72 230.1 305.48 230.71 305 231.31 304.27 231.67 303.55 231.79 303.07 231.79 302.95"/><polyline class="cls-2" points="231.79 173.03 231.79 2.53 231.55 1.81 231.43 1.56 231.19 1.2 231.07 1.08 230.94 0.84 230.71 0.72 230.46 0.48 230.22 0.36 229.98 0.24 229.74 0.12 229.38 0 2.05 0 1.69 0.24 1.2 0.36 0.84 0.84 0.48 1.08 0.24 1.56 0 2.29 0 173.99"/></g></g></svg>